<svg data-name="Layer 1" width="1097.1" height="807.9" viewBox="0 0 1097.1 807.9" version="1.1" id="svg86" sodipodi:docname="undraw_android_jr64.svg" xml:space="preserve" inkscape:version="1.2.2 (b0a8486541, 2022-12-01)" xmlns:inkscape="http://www.inkscape.org/namespaces/inkscape" xmlns:sodipodi="http://sodipodi.sourceforge.net/DTD/sodipodi-0.dtd" xmlns="http://www.w3.org/2000/svg" xmlns:svg="http://www.w3.org/2000/svg"><defs id="defs90" /><sodipodi:namedview id="namedview88" pagecolor="#ffffff" bordercolor="#999999" borderopacity="1" inkscape:showpageshadow="0" inkscape:pageopacity="0" inkscape:pagecheckerboard="0" inkscape:deskcolor="#d1d1d1" showgrid="false" inkscape:zoom="1.0496348" inkscape:cx="395.85196" inkscape:cy="432.05502" inkscape:window-width="1920" inkscape:window-height="1019" inkscape:window-x="0" inkscape:window-y="30" inkscape:window-maximized="1" inkscape:current-layer="svg86" /><title id="title2">android</title><path d="M63.3,476c17.36,74.2,54.11,138.34,112.19,169.43,120.7,64.61,392.91,31.29,596.07-7a465.21,465.21,0,0,0,264.54-151.23Z" transform="translate(-51.45 -46.05)" fill="#0077b6" opacity="0.1" id="path4" /><path d="M1128.65,126.76H1017.18a9.63,9.63,0,1,1,0-19.27h19.27a9.63,9.63,0,0,1,0-19.27h-13.76a9.63,9.63,0,0,1,0-19.27h58.18c-12.91-6-28-10.27-45.38-12.51-158.64-20.38-215.28-6.9-235.26,7-24.65,17.1-52.15,29.68-81.54,35.74-97.88,20.19-280.93,44.49-446.84-7.78-82.46-26-143.75,17.92-180.48,91.28H1148c-1.38-21.32-5.51-41-13.09-58.24A9.58,9.58,0,0,1,1128.65,126.76Z" transform="translate(-51.45 -46.05)" fill="#0077b6" opacity="0.1" id="path6" /><path d="M53.84,321.15A491.06,491.06,0,0,0,58.16,450.6l978.68,35.79a460,460,0,0,0,68-103.7ZM440.92,413.5H421.65a9.63,9.63,0,1,1,0,19.27H310.18a9.63,9.63,0,1,1,0-19.27h19.27a9.63,9.63,0,0,1,0-19.27H315.69a9.63,9.63,0,0,1,0-19.27H427.16a9.63,9.63,0,1,1,0,19.27h13.76a9.63,9.63,0,0,1,0,19.27Z" transform="translate(-51.45 -46.05)" fill="#0077b6" opacity="0.1" id="path8" /><path d="M1148.05,183.34l-1068.49,26C66.57,242.74,58,280.51,54,319.67H1129.33a456.46,456.46,0,0,0,15.53-70.33C1148.06,226.32,1149.34,204.07,1148.05,183.34ZM270.92,268.5H251.65a9.63,9.63,0,1,1,0,19.27H140.18a9.63,9.63,0,1,1,0-19.27h19.27a9.63,9.63,0,0,1,0-19.27H145.69a9.63,9.63,0,0,1,0-19.27H257.16a9.63,9.63,0,1,1,0,19.27h13.76a9.63,9.63,0,0,1,0,19.27Z" transform="translate(-51.45 -46.05)" fill="#0077b6" opacity="0.1" id="path10" /><g opacity="0.1" id="g42"><path d="M729,669.33s28.2-69.5,80.86-95.28A113.65,113.65,0,0,0,861.47,524,191.13,191.13,0,0,0,874.4,491.5" transform="translate(-51.45 -46.05)" fill="none" stroke="#535461" stroke-miterlimit="10" stroke-width="2" id="path12" /><path d="M907.49,475.05c-5.49,6.9-33.9,17-33.9,17s3.42-30,8.91-36.85a16,16,0,0,1,25,19.88Z" transform="translate(-51.45 -46.05)" fill="#0077b6" id="path14" /><path d="M897.74,529.71c-8.36,2.81-37.68-4.18-37.68-4.18s19.15-23.28,27.51-26.09a16,16,0,0,1,10.17,30.27Z" transform="translate(-51.45 -46.05)" fill="#0077b6" id="path16" /><path d="M844.88,594.31c-8.63-1.79-30.42-22.63-30.42-22.63s28.28-10.43,36.92-8.64a16,16,0,0,1-6.5,31.26Z" transform="translate(-51.45 -46.05)" fill="#0077b6" id="path18" /><path d="M793.88,634.19c-8.81-.31-33.81-17.16-33.81-17.16S786.19,602,795,602.28a16,16,0,1,1-1.12,31.91Z" transform="translate(-51.45 -46.05)" fill="#0077b6" id="path20" /><path d="M832.76,506c1.13,8.75,20.22,32.07,20.22,32.07s12.57-27.4,11.45-36.15A16,16,0,0,0,832.76,506Z" transform="translate(-51.45 -46.05)" fill="#0077b6" id="path22" /><path d="M773.7,553.39c3.69,8,28.89,24.55,28.89,24.55s3.8-29.91.11-37.91a16,16,0,1,0-29,13.37Z" transform="translate(-51.45 -46.05)" fill="#0077b6" id="path24" /><path d="M722.62,607.33c2.28,8.52,24.33,29.08,24.33,29.08s8.8-28.83,6.51-37.35a16,16,0,0,0-30.84,8.27Z" transform="translate(-51.45 -46.05)" fill="#0077b6" id="path26" /><path d="M907.49,475.05c-5.49,6.9-33.9,17-33.9,17s3.42-30,8.91-36.85a16,16,0,0,1,25,19.88Z" transform="translate(-51.45 -46.05)" opacity="0.25" id="path28" /><path d="M897.74,529.71c-8.36,2.81-37.68-4.18-37.68-4.18s19.15-23.28,27.51-26.09a16,16,0,0,1,10.17,30.27Z" transform="translate(-51.45 -46.05)" opacity="0.25" id="path30" /><path d="M844.88,594.31c-8.63-1.79-30.42-22.63-30.42-22.63s28.28-10.43,36.92-8.64a16,16,0,0,1-6.5,31.26Z" transform="translate(-51.45 -46.05)" opacity="0.25" id="path32" /><path d="M793.88,634.19c-8.81-.31-33.81-17.16-33.81-17.16S786.19,602,795,602.28a16,16,0,1,1-1.12,31.91Z" transform="translate(-51.45 -46.05)" opacity="0.25" id="path34" /><path d="M832.76,506c1.13,8.75,20.22,32.07,20.22,32.07s12.57-27.4,11.45-36.15A16,16,0,0,0,832.76,506Z" transform="translate(-51.45 -46.05)" opacity="0.25" id="path36" /><path d="M773.7,553.39c3.69,8,28.89,24.55,28.89,24.55s3.8-29.91.11-37.91a16,16,0,1,0-29,13.37Z" transform="translate(-51.45 -46.05)" opacity="0.25" id="path38" /><path d="M722.62,607.33c2.28,8.52,24.33,29.08,24.33,29.08s8.8-28.83,6.51-37.35a16,16,0,0,0-30.84,8.27Z" transform="translate(-51.45 -46.05)" opacity="0.25" id="path40" /></g><g opacity="0.1" id="g60"><path d="M709,567.71s3.56-74.92,44.69-116.71a113.65,113.65,0,0,0,32-64.35,191.13,191.13,0,0,0,1.43-34.92" transform="translate(-51.45 -46.05)" fill="none" stroke="#535461" stroke-miterlimit="10" stroke-width="2" id="path44" /><path d="M813,325.24c-2.89,8.33-26.35,27.26-26.35,27.26s-6.7-29.39-3.81-37.72A16,16,0,1,1,813,325.24Z" transform="translate(-51.45 -46.05)" fill="#0077b6" id="path46" /><path d="M821.88,380c-7,5.42-36.94,8.56-36.94,8.56s10.35-28.32,17.3-33.74A16,16,0,1,1,821.88,380Z" transform="translate(-51.45 -46.05)" fill="#0077b6" id="path48" /><path d="M793.43,458.52c-8.74,1.17-36.2-11.26-36.2-11.26s23.23-19.22,32-20.39a16,16,0,1,1,4.24,31.65Z" transform="translate(-51.45 -46.05)" fill="#0077b6" id="path50" /><path d="M758.54,513.05c-8.42,2.63-37.59-5-37.59-5s19.64-22.87,28.06-25.5a16,16,0,0,1,9.53,30.48Z" transform="translate(-51.45 -46.05)" fill="#0077b6" id="path52" /><path d="M752.71,379.22c4,7.88,29.72,23.55,29.72,23.55s2.77-30-1.19-37.9a16,16,0,0,0-28.53,14.35Z" transform="translate(-51.45 -46.05)" fill="#0077b6" id="path54" /><path d="M712.71,443.52c6.14,6.33,35.4,13.58,35.4,13.58s-6.33-29.47-12.47-35.8a16,16,0,0,0-22.93,22.23Z" transform="translate(-51.45 -46.05)" fill="#0077b6" id="path56" /><path d="M682.41,511.34c5,7.28,32.6,19.37,32.6,19.37s-1.26-30.12-6.24-37.4a16,16,0,0,0-26.35,18Z" transform="translate(-51.45 -46.05)" fill="#0077b6" id="path58" /></g><path d="M351.19,821.81c39.32,13.22,87.29,5.18,131.9,6.11,6.11.13,12.57.51,17.47,2.79s7.31,6,10.67,9.15c12.5,11.79,38.11,15.58,60.5,13.58s42.92-8.62,64-13.66c36.52-8.72,78.27-12.68,114.29-3.18,3.31.87,6.79,1.87,10.33,1.53,7.9-.78,10.25-7.1,15.77-10.71,10-6.52,31.63-4.75,36-13.34,2.57-5-3.34-10.2-9.77-13.64-24.62-13.16-59.84-15.33-92.06-13.3s-63.9,7.63-96.29,7.65c-40.35,0-79.34-8.59-119.3-12.11-27.68-2.44-57.89-2.14-83.84,5C382.81,795.5,376.61,812.94,351.19,821.81Z" transform="translate(-51.45 -46.05)" fill="#0077b6" opacity="0.1" id="path62" /><rect x="365.51" y="184.9" width="7" height="99" fill="#535461" id="rect64" /><rect x="365.51" y="317.9" width="7" height="56" fill="#535461" id="rect66" /><rect x="370.51" y="87.9" width="315" height="684" rx="47.1" ry="47.1" fill="#535461" id="rect68" /><rect x="370.51" y="119.9" width="315" height="623" rx="47.1" ry="47.1" fill="#0077b6" id="rect70" /><rect x="502.51" y="102.9" width="52" height="7" rx="3.5" ry="3.5" fill="#eaeaf3" id="rect72" /><circle cx="572.51" cy="106.9" r="5" fill="#eaeaf3" id="circle74" /><path d="M497.76,442.15v73a17.27,17.27,0,0,1-17.33,17.46c-9.64,0-19-7.81-19-17.46v-73c0-9.52,9.33-17.33,19-17.33A17.4,17.4,0,0,1,497.76,442.15Zm6.81,98.94a18.61,18.61,0,0,0,18.65,18.65h12.54l.19,38.51c0,23.25,34.79,23.07,34.79,0V559.75h23.44v38.51c0,23.13,35,23.19,35,0V559.75h12.73a18.59,18.59,0,0,0,18.53-18.65V428H504.57ZM660.86,421.92h-157c0-27,16.13-50.42,40.08-62.64l-12-22.25c-1.76-3.09,2.71-5,4.22-2.39l12.23,22.44a85.14,85.14,0,0,1,68.25,0l12.16-22.37c1.58-2.71,6-.69,4.22,2.39l-12,22.18C644.73,371.5,660.86,394.95,660.86,421.92Zm-107.58-35a6.62,6.62,0,0,0-6.62-6.62,6.62,6.62,0,0,0,0,13.23A6.62,6.62,0,0,0,553.28,386.94Zm71.47,0a6.52,6.52,0,1,0-6.43,6.62A6.58,6.58,0,0,0,624.75,386.94Zm59.74,37.88a17.28,17.28,0,0,0-17.33,17.33v73a17.39,17.39,0,0,0,17.33,17.46c9.71,0,19-7.81,19-17.46v-73C703.46,432.45,694.13,424.82,684.49,424.82Z" transform="translate(-51.45 -46.05)" fill="#fff" id="path76" /><rect x="454.01" y="569.46" width="65" height="3" fill="#535461" id="rect78" /><rect x="543.01" y="569.46" width="43" height="3" fill="#535461" id="rect80" /><rect x="397.01" y="569.46" width="43" height="3" fill="#535461" id="rect82" /><rect x="611.01" y="569.46" width="43" height="3" fill="#535461" id="rect84" /><title id="title196">Expo</title><path d="m 645.58486,467.80573 a 11.359192,11.359192 0 0 0 -4.43273,-3.6981 11.474134,11.474134 0 0 0 -11.17928,0.79959 11.319213,11.319213 0 0 0 -3.84804,4.2928 10.074849,10.074849 0 0 0 1.959,11.3642 16.701461,16.701461 0 0 0 11.1443,-3.1484 16.436597,16.436597 0 0 0 6.35176,-9.61009 z m -33.8277,-43.85257 -7.2463,-3.93799 -31.53388,17.39611 2.51372,1.34931 4.78255,2.48872 8.65558,-4.76756 22.83332,-12.60855 z m 2.9185,-1.19939 a 1.1244252,1.1244252 0 0 1 0.7996,0.74961 l 10.5646,30.89421 a 1.0244762,1.0244762 0 0 1 -0.49975,1.34431 20.304619,20.304619 0 0 0 -8.98541,9.86496 20.074737,20.074737 0 0 0 -0.87455,13.26822 21.404058,21.404058 0 0 0 8.77051,11.65404 c 4.20786,2.7486 9.25527,3.94798 14.26271,3.39826 a 1.3443127,1.3443127 0 0 1 1.30933,0.79959 l 10.91443,31.70879 a 1.2793459,1.2793459 0 0 1 -0.50474,1.38929 l -33.54286,19.44007 a 1.2643536,1.2643536 0 0 1 -0.50474,0.0999 1.3493102,1.3493102 0 0 1 -0.90454,-0.14992 l -11.76898,-7.32126 a 1.1694022,1.1694022 0 0 1 -0.49974,-0.49974 l -22.98825,-52.38822 -35.00711,19.73991 a 1.6341646,1.6341646 0 0 1 -1.3593,0.05 l -7.95593,-4.4877 a 1.1494124,1.1494124 0 0 1 -0.49975,-1.49424 l 34.00762,-63.9673 a 1.2143792,1.2143792 0 0 1 0.54971,-0.49474 l 33.90767,-18.74542 a 1.2943383,1.2943383 0 0 1 1.20438,0 l 9.61009,5.14737 z m -42.0485,17.18621 -1.64916,-0.84457 -32.78324,61.86838 5.98195,3.33829 28.27054,-36.65626 a 1.3742974,1.3742974 0 0 1 1.15441,-0.49975 1.4092795,1.4092795 0 0 1 1.00449,0.74462 l 30.78426,70.29407 8.22579,5.03242 -33.0431,-95.75105 -1.40428,-3.98796 -6.58664,-3.58816 0.05,0.05 z m 50.69908,36.89114 a 12.543587,12.543587 0 0 1 0.5997,-8.31075 12.69351,12.69351 0 0 1 5.68709,-6.14685 13.982851,13.982851 0 0 1 16.29667,1.99897 12.558579,12.558579 0 0 1 0.36481,17.83089 l -0.36481,0.36481 a 13.842923,13.842923 0 0 1 -18.93033,0.05 13.588053,13.588053 0 0 1 -3.65313,-5.78705 z" fill="#000000" id="path274" style="stroke-width:4.99743" /></svg>
