<svg xmlns="http://www.w3.org/2000/svg" width="606.78384" height="466.94693" viewBox="0 0 606.78384 466.94693" xmlns:xlink="http://www.w3.org/1999/xlink"><path d="M243.1138,465.75693c0,.66003,.53003,1.19,1.19006,1.19h361.28998c.65997,0,1.19-.52997,1.19-1.19,0-.65997-.53003-1.19-1.19-1.19H244.30386c-.66003,0-1.19006,.53003-1.19006,1.19Z" fill="#ccc"/><g><path d="M478.73106,208.21561l-12.81104-88.46045,11.30322-1.22412c11.81543-1.27734,22.81394,5.6587,26.74851,16.87208,7.11395,9.12006,11.27283,19.82416,11.45898,32.65771,4.6001,13.10986-2.28025,27.63817-15.33689,32.38622l-21.36279,7.76855Z" fill="#3f3d56"/><g><polygon points="480.18534 444.73761 471.57779 444.94074 466.7798 406.27023 479.48238 405.96963 480.18534 444.73761" fill="#a0616a"/><path d="M450.65393,462.69556h0c0,1.45409,1.03191,2.63289,2.30485,2.63289h17.08527s1.68133-6.7585,8.53637-9.66706l.47312,9.66706h8.81369l-1.06787-15.5442s2.35771-8.3162-2.53875-12.5672c-4.89651-4.251-.93052-3.65923-.93052-3.65923l-1.9262-9.62068-13.31844,1.56616-.09793,15.10222-6.46334,14.99036-9.48016,4.68304c-.84378,.4168-1.39,1.3665-1.39,2.41661l-.00011,.00003Z" fill="#2f2e41"/></g><g><polygon points="448.73769 444.44459 440.13013 444.64772 435.33214 405.97721 448.03472 405.67661 448.73769 444.44459" fill="#a0616a"/><path d="M419.20627,462.40254h0c0,1.45409,1.03191,2.63289,2.30485,2.63289h17.08527s1.68133-6.7585,8.53637-9.66706l.47312,9.66706h8.81369l-1.06787-15.5442s2.35771-8.3162-2.53875-12.5672c-4.89651-4.251-.93052-3.65923-.93052-3.65923l-1.9262-9.62068-13.31844,1.56616-.09793,15.10222-6.46334,14.99036-9.48016,4.68304c-.84378,.4168-1.39,1.3665-1.39,2.41661l-.00011,.00003Z" fill="#2f2e41"/></g><path d="M473.51973,114.47654l-30.99834,5.39101c-2.13559-5.46579-12.47307-20.54879-13.35857-25.90032-2.30216-13.91303,8.07112-26.73999,22.13422-27.78947h.00005c13.48814-1.00658,21.70534,1.51938,22.85326,14.367,.40236,4.50321,6.26672,8.56659,7.44772,12.93076,6.51556,24.07697-6.52003,15.87037-8.07834,21.00102Z" fill="#2f2e41"/><path d="M426.97896,215.32013l-2.02163,30.99834,8.68046,172.71696,16-3,10.79624-140.74026,3.9451,143.19884,18.86855,.67388,13.26058-168.16821c1.01319-12.84915-2.35442-25.66276-9.55424-36.3534v-.00002l-59.97505,.67388Z" fill="#2f2e41"/><path d="M466.06382,115.58636h-24.73181l-5.59265,8.7604-19.54243,8.08652,10.78203,76.82196-2.69551,33.01997c15.23536,5.16951,50.59214,13.171,76.16536-7.94676l-22.92909-41.24626,5.39101-57.95341-10.44509-9.50326-6.40183-10.03917Z" fill="#6c63ff"/><circle cx="452.38118" cy="92.54439" r="18.68574" fill="#a0616a"/><path d="M498.50889,260.19966c-.40161-2.02836-.3118-3.97925,.16337-5.58086l-5.04638-19.08113,9.14981-2.13566,4.13391,19.58585c1.04964,1.2997,1.87607,3.06917,2.27768,5.09753,.91748,4.63378-.72921,8.86346-3.67797,9.4473-2.94876,.58384-6.08294-2.69925-7.00042-7.33302h0Z" fill="#a0616a"/><path d="M470.44402,130.74859s11.45591-4.71714,16.84692,4.04326c5.39101,8.7604,19.54243,111.86356,19.54243,111.86356l-11.79285,1.68469-23.24875-83.22379-1.34775-34.36772Z" fill="#6c63ff"/><polygon points="478.6378 190.03543 469.07173 122.96288 477.22047 129.48033 478.6378 190.03543" fill="#3f3d56"/><g><path d="M473.60477,147.41331c-1.53019,1.57383-3.28897,2.67156-4.97489,3.222l-13.63005,15.91357-7.38258-6.70724,14.62119-15.42057c.5028-1.70074,1.55066-3.48969,3.08085-5.06352,3.49571-3.59541,8.18429-4.7067,10.47226-2.48215,2.28798,2.22454,1.30893,6.9425-2.18677,10.53791h0Z" fill="#a0616a"/><path d="M428.687,127.80491s-12.87212,1.47288-13.84915,6.83274,5.99069,55.13488,5.99069,55.13488l9.68255,10.2629,37.82838-45.06214-11.37771-7.14613-17.48543,13.73961-10.78935-33.76186Z" fill="#6c63ff"/></g><path d="M450.09075,69.15171c-7.60062,1.33743-14.96605,5.45258-18.90924,12.08654-3.94319,6.63396-11.16814,15.87716-5.93007,21.54468,1.81043,1.95886,4.11695,3.44175,5.74553,5.55422,2.77133,3.59476,3.17157,8.64549,1.78962,12.969s-4.34565,7.9896-7.73629,11.00723c7.25776-.74874,13.88133-5.90489,16.38777-12.75715,1.15985-3.17087,1.39592-6.97442-.58875-9.70586-1.04378-1.43653-2.58113-2.41857-3.90693-3.59981-3.41944-3.0466-1.22336-7.64853-1.20302-12.22827s.59689-7.76592,4.04326-10.78203c2.37347,1.8969,10.24363,1.43894,13.24276,.9523,2.99913-.48664,11.38654,11.03204,13.03844,8.48198,3.23374,4.15672,1.02121-4.4089,.41411,.82243-.43433,3.74256-2.89171,6.97085-3.63262,10.66496-.64474,3.21461,.05988,6.5598,1.19239,9.63662,2.55466,6.9406,7.34433,13.03873,13.48203,17.1651-3.54377-5.01207-7.23832-10.48941-7.12173-16.62664,.08648-4.55209,9.78516-21.94748,11.14336-26.29309,2.59893-8.31535-4.55362-9.53005-10.08652-16.25957-4.85898-5.90985-14.25182-4.08367-21.69996-2.33402" fill="#2f2e41"/></g><path d="M304.97998,0H19.02002C8.53003,0,0,8.52997,0,19.01996V313.97998c0,10.48999,8.53003,19.02002,19.02002,19.02002H304.97998c10.48999,0,19.02002-8.53003,19.02002-19.02002V19.01996c0-10.48999-8.53003-19.01996-19.02002-19.01996Zm17.02002,313.97998c0,9.39001-7.63,17.02002-17.02002,17.02002H19.02002c-9.39001,0-17.02002-7.63-17.02002-17.02002V19.01996C2,9.63,9.63,2,19.02002,2H304.97998c9.39001,0,17.02002,7.63,17.02002,17.01996V313.97998Z" fill="#3f3d56"/><g><path d="M129.03003,19.34998h-28.06006c-1.40997,0-2.56,1.15002-2.56,2.56,0,1.41998,1.15002,2.57001,2.56,2.57001h28.06006c1.40997,0,2.56-1.15002,2.56-2.57001,0-1.40997-1.15002-2.56-2.56-2.56Z" fill="#e6e6e6"/><path d="M176.03003,19.34998h-28.06006c-1.40997,0-2.56,1.15002-2.56,2.56,0,1.41998,1.15002,2.57001,2.56,2.57001h28.06006c1.40997,0,2.56-1.15002,2.56-2.57001,0-1.40997-1.15002-2.56-2.56-2.56Z" fill="#e6e6e6"/><path d="M223.03003,19.34998h-28.06006c-1.40997,0-2.56,1.15002-2.56,2.56,0,1.41998,1.15002,2.57001,2.56,2.57001h28.06006c1.40997,0,2.56-1.15002,2.56-2.57001,0-1.40997-1.15002-2.56-2.56-2.56Z" fill="#3f3d56"/></g><path d="M85.49814,87.41216H50.29819c-4.36005,0-7.90002,3.53998-7.90002,7.89996v20.20001c0,4.35999,3.53998,7.90002,7.90002,7.90002h35.19995c4.36005,0,7.90002-3.54004,7.90002-7.90002v-20.20001c0-4.35999-3.53998-7.89996-7.90002-7.89996Z" fill="#6c63ff"/><path d="M122.73777,140.88811h-35.19995c-4.36005,0-7.90002,3.53998-7.90002,7.89996v20.20001c0,4.35999,3.53998,7.90002,7.90002,7.90002h35.19995c4.36005,0,7.90002-3.54004,7.90002-7.90002v-20.20001c0-4.35999-3.53998-7.89996-7.90002-7.89996Z" fill="#e6e6e6"/><path d="M129.43365,122.27012c-.66503,0-1.20414-.53911-1.20414-1.20414v-31.30765c0-.66503,.53911-1.20414,1.20414-1.20414s1.20414,.53911,1.20414,1.20414v31.30765c0,.66503-.53911,1.20414-1.20414,1.20414Zm-6.0207-16.85797c0,.66503-.53911,1.20414-1.20414,1.20414h-13.95117l5.17058,5.16817c.47084,.47084,.47084,1.23422,0,1.70506s-1.23422,.47084-1.70506,0l-7.22484-7.22484c-.47084-.46965-.4718-1.23207-.00215-1.70291l.00215-.00215,7.22484-7.22484c.47084-.47084,1.23422-.47084,1.70506,0s.47084,1.23422,0,1.70506l-5.17058,5.16817h13.95117c.66503,0,1.20414,.53911,1.20414,1.20414Z" fill="#3f3d56"/><path d="M49.62301,158.88811c0,.66503,.53911,1.20414,1.20414,1.20414h13.95117l-5.17058,5.16817c-.47084,.47084-.47084,1.23422,0,1.70506s1.23422,.47084,1.70506,0l7.22484-7.22484c.47084-.46965,.47181-1.23207,.00215-1.70291l-.00215-.00215-7.22484-7.22484c-.47084-.47084-1.23422-.47084-1.70506,0s-.47084,1.23422,0,1.70506l5.17058,5.16817h-13.95117c-.66503,0-1.20414,.53911-1.20414,1.20414Zm-6.0207,16.85797c-.66503,0-1.20414-.53911-1.20414-1.20414v-31.30765c0-.66503,.53911-1.20414,1.20414-1.20414s1.20414,.53911,1.20414,1.20414v31.30765c0,.66503-.53911,1.20414-1.20414,1.20414Z" fill="#3f3d56"/><path d="M231.73777,115.03543h-35.19995c-4.36005,0-7.90002,3.53998-7.90002,7.89996v20.20001c0,4.35999,3.53998,7.90002,7.90002,7.90002h35.19995c4.36005,0,7.90002-3.54004,7.90002-7.90002v-20.20001c0-4.35999-3.53998-7.89996-7.90002-7.89996Z" fill="#e6e6e6"/><path d="M231.73777,239.03543h-35.19995c-4.36005,0-7.90002,3.53998-7.90002,7.89996v20.20001c0,4.35999,3.53998,7.90002,7.90002,7.90002h35.19995c4.36005,0,7.90002-3.54004,7.90002-7.90002v-20.20001c0-4.35999-3.53998-7.89996-7.90002-7.89996Z" fill="#e6e6e6"/><path d="M197.27983,204.60386c0-.66503,.53911-1.20414,1.20414-1.20414h31.30765c.66503,0,1.20414,.53911,1.20414,1.20414s-.53911,1.20414-1.20414,1.20414h-31.30765c-.66503,0-1.20414-.53911-1.20414-1.20414Zm16.85797,6.0207c.66503,0,1.20414,.53911,1.20414,1.20414v13.95117l5.16817-5.17058c.47084-.47084,1.23422-.47084,1.70506,0s.47084,1.23422,0,1.70506l-7.22484,7.22484c-.46965,.47084-1.23207,.47181-1.70291,.00215l-.00215-.00215-7.22484-7.22484c-.47084-.47084-.47084-1.23422,0-1.70506s1.23422-.47084,1.70506,0l5.16817,5.17058v-13.95117c0-.66503,.53911-1.20414,1.20414-1.20414Z" fill="#3f3d56"/><path d="M214.1378,180.81059c.66503,0,1.20414-.53911,1.20414-1.20414v-13.95117l5.16817,5.17058c.47084,.47084,1.23422,.47084,1.70506,0s.47084-1.23422,0-1.70506l-7.22484-7.22484c-.46965-.47084-1.23207-.4718-1.70291-.00215l-.00215,.00215-7.22484,7.22484c-.47084,.47084-.47084,1.23422,0,1.70506s1.23422,.47084,1.70506,0l5.16817-5.17058v13.95117c0,.66503,.53911,1.20414,1.20414,1.20414Zm-16.85797,6.0207c0-.66503,.53911-1.20414,1.20414-1.20414h31.30765c.66503,0,1.20414,.53911,1.20414,1.20414s-.53911,1.20414-1.20414,1.20414h-31.30765c-.66503,0-1.20414-.53911-1.20414-1.20414Z" fill="#3f3d56"/><circle cx="208.6378" cy="22.03543" r="9" fill="#6c63ff"/></svg>